<?xml version="1.0" encoding="UTF-8"?>
<svg version="1.1" xmlns="http://www.w3.org/2000/svg" width="685" height="632">
<path d="M0 0 C1.58514252 0.00056958 1.58514252 0.00056958 3.20230812 0.00115067 C4.41652083 -0.00084038 5.63073354 -0.00283143 6.88174057 -0.00488281 C8.24652577 -0.00202922 9.61131079 0.00091638 10.97609562 0.00394398 C12.41238939 0.0035084 13.84868309 0.00263375 15.28497636 0.00135481 C19.25047475 -0.00089284 23.21594639 0.00313481 27.18144137 0.00813287 C31.45072067 0.01243334 35.71999835 0.01099124 39.98927921 0.0102306 C47.39229865 0.00970511 54.7953093 0.01285454 62.19832653 0.01846844 C72.90197431 0.02658002 83.60561783 0.02919831 94.30926835 0.03045643 C111.67334644 0.03264749 129.03741985 0.03930903 146.4014954 0.04875904 C163.27356547 0.05793177 180.14563427 0.06501328 197.01770633 0.06926686 C198.57652394 0.06966094 198.57652394 0.06966094 200.16683281 0.07006299 C205.38001897 0.07136798 210.59320513 0.0726317 215.8063913 0.07387489 C259.08573589 0.08424918 302.36507536 0.10186895 345.64441532 0.1241985 C345.49651192 3.01288207 345.34523616 5.90132309 345.19202274 8.78972584 C345.1507098 9.60340122 345.10939686 10.41707661 345.06683201 11.25540882 C344.76609533 16.85857065 344.21773866 22.27184076 342.95691532 27.7491985 C342.78248905 28.5314983 342.60806278 29.31379811 342.42835087 30.11980397 C334.84759236 62.45345816 314.3912019 91.40352952 286.39441532 109.3116985 C275.41506242 115.73383195 264.30233447 120.91588511 252.08191532 124.4991985 C251.28076298 124.73783619 250.47961063 124.97647389 249.65418094 125.22234303 C236.61373116 128.81496097 223.44818235 129.41604169 210.00525516 129.06218678 C208.51826632 129.03208432 207.03124961 129.00333325 205.54421085 128.97580677 C203.18635867 128.93186437 200.82856164 128.88692815 198.47081202 128.8377617 C192.64194638 128.7164479 186.81352193 128.63669537 180.98367923 128.58071095 C180.13082604 128.5724844 179.27797284 128.56425786 178.3992756 128.55578202 C174.89260801 128.52275246 171.38592953 128.4910856 167.87924308 128.4601267 C157.98071014 128.37111934 148.08629848 128.24236039 138.19031376 127.99626881 C130.28404379 127.79993275 122.38174202 127.68964582 114.47297102 127.67838234 C110.30111412 127.66927677 106.13973317 127.61854212 101.97056812 127.46261173 C85.08138569 126.29343866 85.08138569 126.29343866 70.02546543 132.26203877 C66.29769979 136.75254507 63.88755098 141.54090511 61.67386478 146.91103321 C57.54778158 156.73530012 51.93104945 165.87258877 46.64441532 175.1241985 C122.87441532 175.6191985 122.87441532 175.6191985 200.64441532 176.1241985 C199.47642404 197.14804147 199.47642404 197.14804147 197.95691532 203.7491985 C197.78248905 204.5314983 197.60806278 205.31379811 197.42835087 206.11980397 C189.73786351 238.92147661 169.02594329 267.68910303 140.60144657 285.73747975 C119.04754623 298.9689571 95.66441541 305.18510866 70.43323368 305.32952076 C69.34927311 305.33942036 68.26531254 305.34931996 67.14850467 305.35951954 C63.59377776 305.39090796 60.03903751 305.4158017 56.48425907 305.44060475 C54.00847139 305.46119387 51.53268708 305.48219084 49.05690616 305.50357777 C42.56164893 305.5585962 36.06636104 305.60809418 29.57105106 305.65642506 C22.93467063 305.70678836 16.29833558 305.7623968 9.66199344 305.81755787 C-3.34382791 305.92489179 -16.34968704 306.02656941 -29.35558468 306.1241985 C-29.75382946 306.83733708 -30.15207424 307.55047566 -30.56238705 308.2852245 C-32.06284957 310.97115027 -33.56407998 313.65664506 -35.06580502 316.34186512 C-36.02613664 318.05955391 -36.98560901 319.777723 -37.94506222 321.4959026 C-41.33409407 327.55447606 -44.75159305 333.59084948 -48.29308468 339.5616985 C-48.91229542 340.60608837 -48.91229542 340.60608837 -49.54401547 341.67157704 C-49.92011456 342.30562962 -50.29621365 342.9396822 -50.68370968 343.5929485 C-54.01560376 349.22287705 -57.27706141 354.8933902 -60.54308468 360.5616985 C-61.50009274 362.22253468 -61.50009274 362.22253468 -62.47643429 363.91692311 C-63.78447945 366.18756917 -65.09233916 368.45832207 -66.40001827 370.72917897 C-70.16898116 377.27239968 -73.94421967 383.81200083 -77.71837765 390.35222584 C-80.90821174 395.88043766 -84.09633548 401.40962374 -87.28136593 406.94060475 C-90.4111384 412.37500297 -93.54684625 417.80593579 -96.68663937 423.23455006 C-98.20854254 425.86960652 -99.72394913 428.50829137 -101.23839718 431.147636 C-108.17878247 443.18333024 -115.78482629 453.99239564 -125.35558468 464.1241985 C-126.04136593 464.87443287 -126.72714718 465.62466725 -127.43370968 466.397636 C-142.86680252 482.68812289 -163.92167469 493.24561496 -185.35558468 499.1241985 C-186.52992062 499.46322193 -187.70425656 499.80224537 -188.91417843 500.15154225 C-218.4440536 507.17014346 -253.71349751 502.3635889 -279.95714718 487.16716725 C-281.35558468 486.1241985 -281.35558468 486.1241985 -282.35558468 484.1241985 C-281.23839718 481.73943287 -281.23839718 481.73943287 -279.48058468 478.7179485 C-278.83275021 477.59501393 -278.18491574 476.47207936 -277.51744992 475.31511647 C-276.79695356 474.08473704 -276.07632836 472.85443306 -275.35558468 471.6241985 C-274.61922817 470.35396866 -273.883642 469.08329197 -273.14879757 467.81218678 C-271.63217511 465.19143645 -270.1112088 462.5732845 -268.58654171 459.95720631 C-265.91662945 455.37434749 -263.27098195 450.77761268 -260.62511593 446.18083912 C-258.15936536 441.89863476 -255.68671501 437.62042983 -253.2144714 433.34197193 C-250.09233863 427.93749204 -246.97417264 422.53072437 -243.85558468 417.1241985 C-242.60560347 414.95752099 -241.35560347 412.79085432 -240.10558468 410.6241985 C-239.17745968 409.0154485 -239.17745968 409.0154485 -238.23058468 407.3741985 C-220.41808468 376.4991985 -220.41808468 376.4991985 -202.60558468 345.6241985 C-201.98675411 344.55153736 -201.36792355 343.47887623 -200.73034054 342.37371022 C-199.4812295 340.20862779 -198.23204339 338.04358867 -196.98278195 335.87859303 C-193.84356159 330.43804144 -190.70567905 324.99672634 -187.57042843 319.553886 C-181.54811139 309.1021365 -175.50889131 298.66120302 -169.41808468 288.2491985 C-164.34283345 279.57157608 -159.33299702 270.85814282 -154.35558468 262.1241985 C-148.81556738 252.40304233 -143.22183659 242.71525192 -137.57213742 233.05730397 C-131.41791727 222.53335225 -125.33188472 211.97039712 -119.24669796 201.40642506 C-116.1187832 195.97759907 -112.9870002 190.55100569 -109.85558468 185.1241985 C-108.60556589 182.95754267 -107.3555659 180.790876 -106.10558468 178.6241985 C-72.35558468 120.1241985 -72.35558468 120.1241985 -38.60558468 61.6241985 C-37.67673458 60.01411915 -37.67673458 60.01411915 -36.72911984 58.37151295 C-35.48417186 56.21370047 -34.23905578 54.05598497 -32.99376827 51.89836842 C-29.79005817 46.34703257 -26.58964838 40.79383308 -23.39464718 35.23747975 C-12.15578518 15.7023397 -12.15578518 15.7023397 -6.98058468 7.0616985 C-6.43555294 6.15061329 -6.43555294 6.15061329 -5.87951046 5.22112232 C-2.81854993 0.1486084 -2.81854993 0.1486084 0 0 Z " fill="#FFFFFF" transform="translate(282.3555846810341,-0.12419849634170532)"/>
<path d="M0 0 C1 3 1 3 -0.02539062 5.31469727 C-0.56357422 6.22276123 -1.10175781 7.1308252 -1.65625 8.06640625 C-2.25888672 9.09572266 -2.86152344 10.12503906 -3.48242188 11.18554688 C-4.14822266 12.29994141 -4.81402344 13.41433594 -5.5 14.5625 C-6.18922894 15.73308997 -6.87736357 16.90432489 -7.56445312 18.07617188 C-8.99445462 20.51311 -10.42915344 22.94718843 -11.8671875 25.37939453 C-15.12244075 30.8939538 -18.30779361 36.44879714 -21.5 42 C-22.74966591 44.16685938 -23.99966715 46.3335254 -25.25 48.5 C-25.86875 49.5725 -26.4875 50.645 -27.125 51.75 C-59 107 -90.875 162.25 -122.75 217.5 C-123.36883057 218.57266113 -123.98766113 219.64532227 -124.62524414 220.75048828 C-125.87435518 222.91557071 -127.12354129 225.08060982 -128.37280273 227.24560547 C-131.51202309 232.68615706 -134.64990563 238.12747216 -137.78515625 243.5703125 C-143.80747329 254.02206199 -149.84669337 264.46299548 -155.9375 274.875 C-161.01275123 283.55262241 -166.02258767 292.26605568 -171 301 C-176.53628113 310.71460026 -182.1251363 320.3965154 -187.77246094 330.04711914 C-192.12813503 337.49353693 -196.44448808 344.96198388 -200.75 352.4375 C-202.00762563 354.61599331 -203.26543283 356.7943818 -204.5234375 358.97265625 C-206.64231511 362.64180566 -208.75216534 366.31577099 -210.8515625 369.99609375 C-229.26862305 402.09628887 -256.05375922 425.80150189 -292.1628418 435.87280273 C-326.57249681 444.67965359 -359.75573556 438.78959765 -391 423 C-389.70891809 419.60997279 -388.24218459 416.47839169 -386.453125 413.32421875 C-385.94539551 412.42662842 -385.43766602 411.52903809 -384.91455078 410.60424805 C-384.36524902 409.64172119 -383.81594727 408.67919434 -383.25 407.6875 C-382.67362793 406.67276611 -382.09725586 405.65803223 -381.50341797 404.61254883 C-376.26959599 395.4219122 -370.93975958 386.28811786 -365.59765625 377.16015625 C-359.98321325 367.56057762 -354.4419968 357.91864049 -348.89111328 348.28222656 C-345.76319852 342.85340058 -342.63141552 337.42680719 -339.5 332 C-338.24998121 329.83334417 -336.99998122 327.6666775 -335.75 325.5 C-298.25 260.5 -260.75 195.5 -223.25 130.5 C-222.63116943 129.42733887 -222.01233887 128.35467773 -221.37475586 127.24951172 C-220.12564482 125.08442929 -218.87645871 122.91939018 -217.62719727 120.75439453 C-214.48797691 115.31384294 -211.35009437 109.87252784 -208.21484375 104.4296875 C-201.50903945 92.79146468 -194.78711153 81.1632345 -187.99902344 69.57275391 C-185.30179182 64.9644069 -182.62175714 60.34877657 -179.99609375 55.69921875 C-161.80583656 23.55530412 -135.89540526 -1.35410103 -99.66650391 -11.6640625 C-67.30859338 -20.21884161 -28.96092902 -18.48665175 0 0 Z " fill="#FFFFFF" transform="translate(684,192)"/>
</svg>
